<svg width="116" height="24" viewBox="0 0 116 24" fill="none" xmlns="http://www.w3.org/2000/svg">
<path d="M58.1332 10.7265C58.1332 13.7108 58.1452 16.6951 58.1293 19.6794C58.1153 22.1528 55.1887 24.5724 52.8346 23.6459C51.3315 23.0554 50.2599 22.0355 49.7509 20.425C48.1404 15.3212 46.4962 10.2294 44.8221 5.1475C44.675 4.70015 44.154 4.00825 43.8856 4.04404C43.1679 4.13748 43.2176 4.87512 43.2196 5.47755C43.2236 10.8159 43.2216 16.1563 43.2196 21.4947C43.2196 21.7929 43.2732 22.119 43.1738 22.3834C42.8816 23.1668 42.3626 23.8249 41.4739 23.8268C40.5971 23.8288 40.0364 23.2602 39.8336 22.3993C39.7442 22.0176 39.6646 21.6239 39.6626 21.2362C39.6507 15.9296 39.6229 10.6231 39.6726 5.31849C39.6905 3.46149 40.2174 1.84904 41.9411 0.685932C44.1421 -0.79927 46.9634 0.681957 47.6056 2.38984C48.4088 4.52718 49.0649 6.7182 49.7827 8.88536C50.908 12.2852 52.0175 15.6891 53.1746 19.077C53.2899 19.411 53.6995 19.6436 53.9719 19.924C54.2303 19.58 54.6081 19.2679 54.7194 18.8821C54.8507 18.4209 54.7533 17.896 54.7533 17.3989C54.7533 12.2594 54.7592 7.11783 54.7493 1.97828C54.7473 1.07562 55.1648 0.497048 55.982 0.172968C56.8031 -0.151113 57.4155 0.240568 57.8449 0.856917C58.0656 1.17304 58.1193 1.66016 58.1233 2.06973C58.1432 4.95663 58.1332 7.84154 58.1332 10.7265Z" fill="#983F96"/>
<path d="M97.506 13.0706C97.506 10.2851 97.5875 7.49759 97.4781 4.71806C97.3986 2.65826 98.8818 0.403615 101.453 0.0596521C102.93 -0.137182 105.218 1.15914 105.918 3.42571C107.503 8.56328 109.177 13.673 110.817 18.7947C110.887 19.0114 110.921 19.2659 111.056 19.4329C111.229 19.6436 111.505 19.9319 111.712 19.912C111.938 19.8902 112.221 19.5919 112.322 19.3494C112.443 19.0611 112.42 18.7032 112.42 18.3771C112.424 13.007 112.41 7.63676 112.445 2.26657C112.449 1.74964 112.626 1.10745 112.964 0.75553C113.318 0.387709 114.024 0.0536874 114.468 0.159063C114.973 0.280345 115.462 0.839032 115.758 1.33012C115.992 1.71584 115.981 2.28646 115.981 2.77357C115.994 7.97874 116.02 13.1839 115.973 18.3871C115.955 20.2262 115.595 21.9679 113.841 23.0912C111.773 24.4154 109.127 23.8249 108.085 21.5603C107.324 19.9081 106.847 18.1226 106.276 16.383C105.041 12.6153 103.844 8.83566 102.584 5.07593C102.441 4.65244 101.983 4.33433 101.673 3.96651C101.411 4.4397 100.926 4.9129 100.922 5.38809C100.868 10.8915 100.88 16.3929 100.894 21.8963C100.896 22.8566 100.427 23.469 99.5837 23.7672C98.7685 24.0555 98.1641 23.5823 97.7545 22.9461C97.5597 22.6419 97.5199 22.1985 97.5179 21.8188C97.498 18.904 97.506 15.9873 97.506 13.0706Z" fill="#983F96"/>
<path d="M10.5072 23.8606C8.61838 23.8606 6.72958 23.795 4.84474 23.8746C1.29775 24.0257 -0.887304 20.3832 0.414982 16.9854C1.0035 15.4505 2.30578 14.7367 3.46292 13.8818C7.05763 11.2255 10.7239 8.66665 14.3544 6.0581C14.6447 5.84934 14.9449 5.59087 15.1159 5.28469C15.4976 4.6067 15.0046 3.96251 14.1218 3.96251C10.1473 3.95655 6.17287 3.96053 2.19842 3.95854C1.32956 3.95854 0.492522 3.7458 0.178383 2.86701C-0.115874 2.04388 -0.111899 1.11737 0.699296 0.526865C1.09296 0.240561 1.64966 0.0397546 2.1328 0.0337899C6.17287 -0.00398633 10.2149 -0.0139311 14.255 0.0238451C16.3068 0.0437274 18.0008 1.40168 18.5575 3.33026C19.1798 5.48748 18.4521 7.67452 16.788 8.87143C12.6505 11.8478 8.51898 14.8361 4.42125 17.8662C4.01963 18.1624 3.60608 18.8165 3.64982 19.2639C3.72736 20.0751 4.50873 20.085 5.20262 20.083C9.07766 20.0711 12.9527 20.0771 16.8278 20.0771C18.1281 20.0771 18.7265 20.598 18.7603 21.7531C18.7961 22.954 17.9849 23.8388 16.7681 23.8507C14.6805 23.8766 12.5948 23.8606 10.5072 23.8606Z" fill="#983F96"/>
<path d="M64.2965 3.96053C64.2965 4.41186 64.2965 4.76775 64.2965 5.12365C64.2965 10.4938 64.2985 15.862 64.2905 21.2322C64.2905 21.6199 64.2508 22.0235 64.1414 22.3953C63.9028 23.2085 63.4217 23.8229 62.5011 23.8447C61.7317 23.8626 60.8668 22.9739 60.7376 22.0971C60.6998 21.8366 60.7217 21.5682 60.7217 21.3018C60.7217 15.0707 60.7197 8.83963 60.7217 2.60854C60.7217 0.733646 61.4255 -3.96454e-06 63.2785 0.0218665C65.7897 0.0516898 68.3227 -0.0656194 70.806 0.222673C73.9275 0.584529 75.6035 2.85508 76.208 5.39205C76.9038 8.30877 76.3213 11.0207 74.0746 13.0586C73.166 13.8837 71.7603 14.1661 70.5694 14.6711C70.3467 14.7645 70.0723 14.7347 69.5613 14.7904C70.3845 15.538 71.0406 16.1444 71.7086 16.7368C73.0904 17.9616 74.5021 19.1565 75.858 20.4091C76.711 21.1984 76.6692 22.4987 75.866 23.3218C75.2337 23.97 74.4961 24.0595 73.838 23.5008C71.6271 21.6279 69.4221 19.743 67.2948 17.7747C66.0143 16.5897 66.0601 14.9952 66.4696 13.4444C66.9269 11.7166 68.3127 11.0227 69.9132 10.7742C71.4601 10.5336 72.4224 9.86555 72.8081 8.51754C73.2455 6.99655 72.7842 5.40796 71.5277 4.58285C71.0127 4.24485 70.3367 4.0162 69.7244 3.98837C67.9529 3.91083 66.1714 3.96053 64.2965 3.96053Z" fill="#983F96"/>
<path d="M20.3491 21.4768C20.6513 20.2958 21.0251 18.7629 21.4327 17.2399C22.6634 12.6511 23.912 8.06622 25.1427 3.4774C25.767 1.1472 27.8805 -0.320106 30.1232 0.220691C31.7297 0.606406 32.8352 1.70191 33.2686 3.33623C34.8592 9.34862 36.4279 15.367 37.9926 21.3853C38.2491 22.3695 37.5214 23.5982 36.6068 23.809C35.7976 23.9939 34.8413 23.2682 34.555 22.1846C33.3243 17.5123 32.1115 12.836 30.8947 8.15966C30.6064 7.04824 30.3698 5.92092 30.0178 4.82939C29.9085 4.49139 29.5009 4.25081 29.2285 3.96451C28.972 4.25678 28.5744 4.51127 28.481 4.84927C26.8765 10.6608 25.3097 16.4824 23.7291 22.2999C23.4607 23.2861 22.6893 23.9283 21.9357 23.8308C21.045 23.7115 20.3551 22.8486 20.3491 21.4768Z" fill="#A5CD3A"/>
<path d="M78.2198 21.3972C78.5738 20.0114 79.0151 18.2698 79.4665 16.5281C80.5759 12.2534 81.7032 7.98071 82.7967 3.70205C83.429 1.2287 85.5266 -0.32012 87.819 0.210735C89.6183 0.626274 90.6641 1.9385 91.1334 3.6782C92.4754 8.64477 93.7916 13.6173 95.1118 18.5899C95.3404 19.4468 95.5452 20.3097 95.7599 21.1706C96.0681 22.4112 95.4597 23.5664 94.3742 23.807C93.5371 23.9919 92.6703 23.2184 92.3541 22.0414C90.8351 16.3571 89.3101 10.6748 87.7852 4.99241C87.7255 4.77172 87.6917 4.51325 87.5546 4.35221C87.4034 4.17525 87.0476 3.9307 86.9541 3.99035C86.6519 4.18122 86.294 4.45559 86.2006 4.77172C85.7492 6.30861 85.3814 7.87136 84.9738 9.42217C83.8505 13.7068 82.7291 17.9914 81.5899 22.2701C81.3274 23.2562 80.4407 23.9441 79.6872 23.8249C78.8183 23.6897 78.2099 22.8387 78.2198 21.3972Z" fill="#A5CD3A"/>
<path d="M27.5085 14.4047C27.5304 13.3767 28.3177 12.5178 29.2343 12.5238C30.1528 12.5278 31.0217 13.5 31.0157 14.516C31.0098 15.4882 30.0594 16.4923 29.1707 16.4684C28.2143 16.4406 27.4846 15.536 27.5085 14.4047Z" fill="#983F96"/>
<path d="M85.1767 14.4226C85.1986 13.3748 86.0575 12.494 87.0297 12.5238C87.9224 12.5516 88.8072 13.6034 88.7515 14.5737C88.6978 15.4882 87.7256 16.4983 86.9283 16.4664C85.9899 16.4267 85.1548 15.4544 85.1767 14.4226Z" fill="#983F96"/>
</svg>
